<svg width="41" height="38" viewBox="0 0 41 38" fill="none" xmlns="http://www.w3.org/2000/svg">
<path d="M40 7.625H31.25V1.5C31.25 1.26794 31.1578 1.04538 30.9937 0.881282C30.8296 0.717187 30.6071 0.625 30.375 0.625H5.875C5.64294 0.625 5.42038 0.717187 5.25628 0.881282C5.09219 1.04538 5 1.26794 5 1.5C5 1.73206 5.09219 1.95462 5.25628 2.11872C5.42038 2.28281 5.64294 2.375 5.875 2.375H10.25V7.625H1.5C1.26794 7.625 1.04538 7.71719 0.881282 7.88128C0.717187 8.04538 0.625 8.26794 0.625 8.5V15.5C0.625 15.7321 0.717187 15.9546 0.881282 16.1187C1.04538 16.2828 1.26794 16.375 1.5 16.375H10.25V21.625H1.5C1.26794 21.625 1.04538 21.7172 0.881282 21.8813C0.717187 22.0454 0.625 22.2679 0.625 22.5V29.5C0.625 29.7321 0.717187 29.9546 0.881282 30.1187C1.04538 30.2828 1.26794 30.375 1.5 30.375H10.25V35.625H5.77C5.53794 35.625 5.31538 35.7172 5.15128 35.8813C4.98719 36.0454 4.895 36.2679 4.895 36.5C4.895 36.7321 4.98719 36.9546 5.15128 37.1187C5.31538 37.2828 5.53794 37.375 5.77 37.375H30.375C30.6071 37.375 30.8296 37.2828 30.9937 37.1187C31.1578 36.9546 31.25 36.7321 31.25 36.5V30.375H40C40.2321 30.375 40.4546 30.2828 40.6187 30.1187C40.7828 29.9546 40.875 29.7321 40.875 29.5V22.5C40.875 22.2679 40.7828 22.0454 40.6187 21.8813C40.4546 21.7172 40.2321 21.625 40 21.625H31.25V16.375H40C40.2321 16.375 40.4546 16.2828 40.6187 16.1187C40.7828 15.9546 40.875 15.7321 40.875 15.5V8.5C40.875 8.26794 40.7828 8.04538 40.6187 7.88128C40.4546 7.71719 40.2321 7.625 40 7.625ZM12 2.375H29.5V7.625H12V2.375ZM2.375 14.625V9.375H19.875V14.625H2.375ZM2.375 28.625V23.375H19.875V28.625H2.375ZM29.5 35.625H12V30.375H29.5V35.625ZM39.125 28.625H21.625V23.375H39.125V28.625ZM29.5 21.625H12V16.375H29.5V21.625ZM39.125 14.625H21.625V9.375H39.125V14.625Z" fill="white"/>
</svg>
